<?xml version="1.0" encoding="utf-8"?>
<!-- Generator: Adobe Illustrator 15.1.0, SVG Export Plug-In . SVG Version: 6.00 Build 0)  -->
<!DOCTYPE svg PUBLIC "-//W3C//DTD SVG 1.1//EN" "http://www.w3.org/Graphics/SVG/1.1/DTD/svg11.dtd">
<svg version="1.1" id="Layer_1" xmlns="http://www.w3.org/2000/svg" xmlns:xlink="http://www.w3.org/1999/xlink" x="0px" y="0px"
	 width="30px" height="30px" viewBox="0 0 30 30" enable-background="new 0 0 30 30" xml:space="preserve">
<g>
	<g>
		<path fill-rule="evenodd" clip-rule="evenodd" fill="#FFFFFF" d="M15,7.762c-3.999,0-7.239,3.239-7.239,7.237
			s3.24,7.238,7.239,7.238c3.998,0,7.238-3.24,7.238-7.238S18.998,7.762,15,7.762z M15,19.594c-2.578,0-4.668-2.09-4.668-4.667
			c0-2.578,2.09-4.666,4.668-4.666c2.576,0,4.666,2.088,4.666,4.666C19.666,17.504,17.576,19.594,15,19.594z M22.459,5.776
			c-0.934,0-1.689,0.758-1.689,1.691s0.756,1.689,1.689,1.689s1.689-0.756,1.689-1.689S23.393,5.776,22.459,5.776z M20.916,1H9.084
			C4.619,1,1,4.618,1,9.083v11.834C1,25.38,4.619,29,9.084,29h11.832C25.381,29,29,25.38,29,20.917V9.083
			C29,4.618,25.381,1,20.916,1z M26.354,21.136c0,2.842-2.303,5.145-5.145,5.145c0,0-3,0.147-6.05,0.147
			c-3.157,0-6.369-0.147-6.369-0.147c-2.841,0-5.145-2.303-5.145-5.145c0,0-0.073-2.889-0.073-5.88c0-3.21,0.073-6.54,0.073-6.54
			c0-2.841,2.304-5.145,5.145-5.145c0,0,3.246-0.146,6.517-0.146c2.92,0,5.903,0.146,5.903,0.146c2.842,0,5.145,2.304,5.145,5.145
			c0,0,0.146,3.33,0.146,6.54C26.5,18.247,26.354,21.136,26.354,21.136z"/>
	</g>
</g>
</svg>
