<?xml version="1.0" encoding="utf-8"?>
<!-- Generator: Adobe Illustrator 15.1.0, SVG Export Plug-In . SVG Version: 6.00 Build 0)  -->
<!DOCTYPE svg PUBLIC "-//W3C//DTD SVG 1.1//EN" "http://www.w3.org/Graphics/SVG/1.1/DTD/svg11.dtd">
<svg version="1.1" id="Layer_1" xmlns="http://www.w3.org/2000/svg" xmlns:xlink="http://www.w3.org/1999/xlink" x="0px" y="0px"
	 width="20px" height="20px" viewBox="0 0 20 20" enable-background="new 0 0 20 20" xml:space="preserve">
<g>
	<g>
		<path fill-rule="evenodd" clip-rule="evenodd" fill="#FF5959" d="M10,12c-0.552,0-1,0.448-1,1s0.448,1,1,1c0.552,0,1-0.448,1-1
			S10.552,12,10,12z M10,2c-4.418,0-8,3.582-8,8s3.582,8,8,8c4.418,0,8-3.582,8-8S14.418,2,10,2z M10,16c-3.314,0-6-2.687-6-6
			s2.686-6,6-6c3.313,0,6,2.687,6,6S13.313,16,10,16z M10,6C9.448,6,9,6.447,9,7v3c0,0.553,0.448,1,1,1c0.552,0,1-0.447,1-1V7
			C11,6.447,10.552,6,10,6z"/>
	</g>
</g>
</svg>
