<?xml version="1.0" encoding="utf-8"?>
<!-- Generator: Adobe Illustrator 22.1.0, SVG Export Plug-In . SVG Version: 6.00 Build 0)  -->
<svg version="1.1" id="Layer_1" xmlns="http://www.w3.org/2000/svg" xmlns:xlink="http://www.w3.org/1999/xlink" x="0px" y="0px"
	 width="483.0119934px" height="200.0099945px" viewBox="0 0 483.0119934 200.0099945"
	 enable-background="new 0 0 483.0119934 200.0099945" xml:space="preserve">
<g>
	<g>
		<path fill="#0F141E" d="M95.9960022,0H61.0349998L0,84.8880005v29.9209976h66.0159988v24.9489975h29.9800034v-24.9489975
			h16.0159988V88.8840027H95.9960022V0z M66.0159988,88.8840027H28.0270004l37.987999-53.8959999v53.8959999H66.0159988z
			 M209.473999,65.2070007c-17.701004,1.2170029-34.2850037,9.5439987-49.7529907,24.9810028
			s-23.822998,31.9990005-25.0659943,49.6880035s4.0279999,32.4129944,15.8130035,44.1750031
			c11.7850037,11.7619934,26.5390015,17.0209961,44.2630005,15.7810059
			c17.723999-1.2400055,34.3200073-9.5789948,49.7870026-25.0160065
			c15.4690094-15.4380035,23.8130035-31.9880066,25.0330048-49.6539993
			c1.2189941-17.6640015-4.0629883-32.3779984-15.848999-44.1389999
			C241.9170074,69.2610016,227.173996,63.9889984,209.473999,65.2070007z M241.0650024,123.4049988
			c-1.4730072,9.8320007-7.3890076,19.9169922-17.746994,30.2539978s-20.4629974,16.2409973-30.3139954,17.7109985
			s-17.6549988-0.6660004-23.4089966-6.4089966c-5.7539978-5.7420044-7.8950043-13.5299988-6.4219971-23.3609924
			c1.4730072-9.8320007,7.3889923-19.9169998,17.746994-30.2539978
			c10.3580017-10.3379974,20.4629974-16.2409973,30.3139954-17.7109985
			c9.852005-1.4700012,17.6549988,0.6660004,23.4089966,6.4089966
			C240.397995,105.7860031,242.5390015,113.572998,241.0650024,123.4049988z M466.9960022,88.8840027V0h-34.9609985L371,84.8880005
			v29.9209976h66.0159912v24.9489975h29.980011v-24.9489975h16.0159912V88.8840027H466.9960022z M437.0159912,88.8840027
			h-37.9880066l37.9880066-53.8959999V88.8840027z"/>
	</g>
</g>
</svg>
